<?xml version="1.0" encoding="UTF-8"?>
<svg xmlns="http://www.w3.org/2000/svg" width="184" height="38" viewBox="0 0 184 38" fill="none">
  <g id="logo" clip-path="url(#clip0_317_1238)">
    <path id="Vector" d="M21.2128 29.1843H0V0H30.1132V37.4549L21.2128 29.1843ZM20.214 9.85252H10.0582V19.3467H20.214V9.85252Z" fill="#1E3B5A"></path>
    <path id="Vector_2" d="M38.8651 23.5439V5.14941H46.2047C47.6107 5.14941 48.8555 5.40813 49.937 5.92557C51.0185 6.44301 51.8562 7.18099 52.45 8.13528C53.0438 9.0917 53.3406 10.1753 53.3406 11.3884C53.3406 13.1824 52.6981 14.616 51.4151 15.689C50.13 16.7621 48.3677 17.2986 46.1283 17.2986H43.2994V23.5397H38.8651V23.5439ZM43.2994 13.8801H46.2047C47.0635 13.8801 47.7188 13.6659 48.1684 13.2354C48.618 12.8049 48.8449 12.2006 48.8449 11.4159C48.8449 10.5571 48.6137 9.86997 48.1493 9.35678C47.687 8.84358 47.055 8.58274 46.2534 8.57426H43.2973V13.8801H43.2994Z" fill="#1E3B5A"></path>
    <path id="Vector_3" d="M58.4789 5.14941H62.6481L69.4447 23.5418H64.6818L63.6087 20.1063H57.5331L56.4727 23.5418H51.7352L58.481 5.14941H58.4789ZM62.5463 16.6836L60.5635 10.3047L58.5934 16.6836H62.5484H62.5463Z" fill="#1E3B5A"></path>
    <path id="Vector_4" d="M69.2052 13.854C69.2052 12.0514 69.5191 10.4736 70.1468 9.12279C70.7745 7.77194 71.6779 6.72646 72.857 5.9906C74.0361 5.25473 75.3997 4.88574 76.9498 4.88574C79.1808 4.88574 80.9748 5.47316 82.332 6.648C83.6871 7.82284 84.4591 9.44089 84.6436 11.5064H80.222C80.1881 10.3867 79.906 9.58297 79.3759 9.0931C78.8457 8.60536 78.0377 8.35936 76.9498 8.35936C75.862 8.35936 75.037 8.77289 74.5238 9.59782C74.0106 10.4227 73.7413 11.7418 73.7159 13.5528V14.8528C73.7159 16.8144 73.9619 18.2182 74.4538 19.0601C74.9458 19.902 75.7941 20.324 76.9986 20.324C78.0165 20.324 78.7969 20.0844 79.3356 19.603C79.8742 19.1238 80.1605 18.3603 80.1944 17.317H84.6033C84.5439 18.5978 84.1982 19.7281 83.5684 20.7079C82.9364 21.6897 82.05 22.4489 80.9091 22.9876C79.7682 23.5262 78.464 23.7955 76.9986 23.7955C74.5811 23.7955 72.6789 23.0088 71.2877 21.4331C69.8966 19.8575 69.2031 17.6351 69.2031 14.7637V13.854H69.2052Z" fill="#1E3B5A"></path>
    <path id="Vector_5" d="M86.7006 23.5439V5.14941H91.1348V13.2609L92.6765 10.9239L96.6443 5.15153H102.126L95.9105 13.2863L102.126 23.5439H96.8712L92.9543 16.6963L91.1348 18.6919V23.5439H86.7006Z" fill="#1E3B5A"></path>
    <path id="Vector_6" d="M110.053 5.14941H114.222L121.019 23.5418H116.256L115.183 20.1063H109.107L108.047 23.5418H103.309L110.055 5.14941H110.053ZM114.121 16.6836L112.138 10.3047L110.168 16.6836H114.123H114.121Z" fill="#1E3B5A"></path>
    <path id="Vector_7" d="M120.943 13.8412C120.943 12.0302 121.263 10.4503 121.903 9.09735C122.544 7.74649 123.46 6.70526 124.652 5.97787C125.843 5.25049 127.222 4.88574 128.789 4.88574C131.079 4.88574 132.859 5.40954 134.127 6.45926C135.395 7.50686 136.133 9.0719 136.343 11.1523H132.074C131.923 10.1237 131.595 9.39212 131.088 8.95314C130.581 8.51417 129.866 8.29574 128.94 8.29574C127.828 8.29574 126.97 8.76653 126.363 9.71021C125.756 10.6539 125.449 12.0005 125.441 13.7522V14.8634C125.441 16.6999 125.754 18.0783 126.382 19.0008C127.01 19.9232 127.998 20.3834 129.345 20.3834C130.498 20.3834 131.357 20.1268 131.921 19.6136V16.7592H128.838V13.714H136.353V21.2677C135.671 22.0248 134.674 22.6377 133.359 23.1C132.044 23.5623 130.604 23.7955 129.039 23.7955C126.63 23.7955 124.707 23.0597 123.267 21.5858C121.827 20.112 121.057 18.0613 120.955 15.4338L120.943 13.8412Z" fill="#1E3B5A"></path>
    <path id="Vector_8" d="M151.628 5.14941V8.57214H143.366V12.4508H150.339V15.7484H143.366V20.1318H151.603V23.5418H138.932V5.14941H151.628Z" fill="#1E3B5A"></path>
    <path id="Vector_9" d="M154.379 20.0186C154.816 19.6136 155.378 19.4121 156.058 19.4121C156.739 19.4121 157.293 19.6115 157.738 20.0123C158.183 20.4131 158.408 20.9241 158.408 21.5476C158.408 22.1711 158.185 22.6821 157.738 23.0829C157.291 23.4837 156.731 23.6831 156.058 23.6831C155.386 23.6831 154.814 23.4816 154.373 23.0766C153.929 22.6715 153.709 22.1626 153.709 21.5476C153.709 20.9326 153.931 20.4237 154.379 20.0186Z" fill="#1E3B5A"></path>
    <path id="Vector_10" d="M166.759 5.14941H170.928L177.725 23.5418H172.962L171.889 20.1063H165.813L164.753 23.5418H160.016L166.761 5.14941H166.759ZM170.827 16.6836L168.844 10.3047L166.874 16.6836H170.829H170.827Z" fill="#1E3B5A"></path>
    <path id="Vector_11" d="M184 23.5439H179.578V5.14941H184V23.5439Z" fill="#1E3B5A"></path>
  </g>
  <defs>
    <clipPath id="clip0_317_1238">
      <rect width="184" height="37.4549" fill="white"></rect>
    </clipPath>
  </defs>
</svg>
